<svg xmlns="http://www.w3.org/2000/svg" width="1600" height="900" viewBox="0 0 1600 900">
  <defs>
    <linearGradient id="bg" x1="0" x2="1" y1="0" y2="1">
      <stop offset="0%" stop-color="#0B1020"/>
      <stop offset="50%" stop-color="#111827"/>
      <stop offset="100%" stop-color="#1F2937"/>
    </linearGradient>
    <linearGradient id="accent" x1="0" x2="1" y1="0" y2="1">
      <stop offset="0%" stop-color="#8B5CF6"/>
      <stop offset="100%" stop-color="#22D3EE"/>
    </linearGradient>
  </defs>
  <rect width="1600" height="900" fill="url(#bg)"/>
  <rect x="60" y="70" width="1480" height="760" rx="40" fill="#0F172A" stroke="#1F2937"/>
  <circle cx="1220" cy="260" r="160" fill="url(#accent)" opacity="0.16"/>
  <circle cx="330" cy="660" r="200" fill="#7C3AED" opacity="0.12"/>
  <rect x="160" y="210" width="420" height="24" rx="12" fill="#8B5CF6" opacity="0.95"/>
  <text x="160" y="320" font-family="Arial, Helvetica, sans-serif" font-size="78" font-weight="700" fill="#F8FAFC">StudentOS</text>
  <text x="160" y="390" font-family="Arial, Helvetica, sans-serif" font-size="30" fill="#CBD5E1">Android student productivity app</text>
  <text x="160" y="450" font-family="Arial, Helvetica, sans-serif" font-size="28" fill="#E2E8F0">Dashboard • Courses • Assignments • Focus sessions</text>
  <rect x="160" y="520" width="260" height="54" rx="27" fill="url(#accent)"/>
  <text x="190" y="554" font-family="Arial, Helvetica, sans-serif" font-size="24" font-weight="700" fill="#0F172A">Compose + Material 3</text>
  <rect x="450" y="520" width="220" height="54" rx="27" fill="#111827" stroke="#475569"/>
  <text x="488" y="554" font-family="Arial, Helvetica, sans-serif" font-size="24" fill="#E5E7EB">Firebase + Room</text>
  <rect x="980" y="210" width="420" height="480" rx="36" fill="#111827" stroke="#334155"/>
  <rect x="1035" y="275" width="310" height="18" rx="9" fill="#8B5CF6" opacity="0.9"/>
  <rect x="1035" y="325" width="240" height="12" rx="6" fill="#CBD5E1" opacity="0.65"/>
  <rect x="1035" y="390" width="300" height="150" rx="28" fill="#1F2937" stroke="#475569"/>
  <rect x="1035" y="570" width="300" height="70" rx="20" fill="#111827" stroke="#475569"/>
  <text x="1065" y="445" font-family="Arial, Helvetica, sans-serif" font-size="28" fill="#F8FAFC">StudentOS</text>
  <text x="1065" y="485" font-family="Arial, Helvetica, sans-serif" font-size="18" fill="#CBD5E1">Modern dashboard preview</text>
  <text x="1065" y="613" font-family="Arial, Helvetica, sans-serif" font-size="18" fill="#CBD5E1">Built with Kotlin, Compose, Firebase & Room</text>
</svg>